<svg width="32" height="48" xmlns="http://www.w3.org/2000/svg">

 <g>
  <title>background</title>
  <rect fill="none" id="canvas_background" height="50" width="34" y="-1" x="-1"/>
 </g>
 <g>
  <title>Layer 1</title>
  <g stroke="null" id="svg_12">
   <path stroke="null" id="svg_9" fill="#0079ad" d="m15.142473,27.518524l0,14.604772l1.917464,0l0,-14.604772c7.120842,-0.494117 12.74819,-6.412196 12.74819,-13.658834c0,-7.570167 -6.136914,-13.707063 -13.707077,-13.707063c-7.570377,0 -13.707273,6.136896 -13.707273,13.707063c0,7.246638 5.627661,13.164824 12.748695,13.658834zm0.958679,-23.43972c5.393903,0 9.781932,4.388239 9.781932,9.780887l-1.917362,0c0,-4.335726 -3.527796,-7.863419 -7.86457,-7.863419l0,-1.917468z"/>
   <path stroke="null" id="svg_10" fill="#0079ad" d="m19.157177,36.31191l-0.119849,1.913712c7.002146,0.439093 10.874555,2.317203 10.874555,3.448245c0,1.408112 -5.507905,3.538028 -13.810732,3.538028c-8.302616,0 -13.811352,-2.129916 -13.811352,-3.538028c0,-1.122584 3.844138,-2.994222 10.793957,-3.442606l-0.123607,-1.913712c-5.806688,0.374476 -12.587818,2.001715 -12.587818,5.356318c0,3.581039 7.91219,5.45539 15.72882,5.45539c7.815919,0 15.728112,-1.874351 15.728112,-5.45539c0,-3.371513 -6.826144,-4.995939 -12.672086,-5.361957z"/>
  </g>
 </g>
</svg>