<svg width="40" height="40" xmlns="http://www.w3.org/2000/svg">

 <g>
  <title>background</title>
  <rect fill="none" id="canvas_background" height="42" width="42" y="-1" x="-1"/>
 </g>
 <g>
  <g stroke="null" id="svg_10">
   <title stroke="null">Layer 1</title>
   <path stroke="null" id="svg_3" fill="#00B8D8" d="m20.007359,1.602191c7.80711,0 14.148835,6.341725 14.148835,14.162633c0,7.088676 -8.004887,17.940623 -14.092722,22.632985c-7.849425,-6.369321 -14.219666,-15.431162 -14.219666,-22.632985c0,-7.820909 6.341725,-14.162633 14.163553,-14.162633zm6.879861,13.871948c0,-3.802827 -3.083565,-6.8863 -6.88722,-6.8863c-3.803747,0 -6.8863,3.083473 -6.8863,6.8863c0,3.803747 3.082553,6.88722 6.8863,6.88722c3.803747,0 6.88722,-3.083473 6.88722,-6.88722z"/>
   <path stroke="null" fill="#fff" id="svg_6" d="m20,23.281249c-4.304351,0 -7.80619,-3.502299 -7.80619,-7.80711c0,-4.304351 3.501839,-7.80619 7.80619,-7.80619c4.304903,0 7.80711,3.501839 7.80711,7.80619c0,4.304811 -3.502207,7.80711 -7.80711,7.80711zm0,-13.77352c-3.289896,0 -5.966409,2.676513 -5.966409,5.966409c0,3.290448 2.676513,5.967329 5.966409,5.967329c3.290448,0 5.967329,-2.676973 5.967329,-5.967329c0,-3.289896 -2.676881,-5.966409 -5.967329,-5.966409z"/>
   <path stroke="null" fill="#fff" id="svg_8" d="m20.063473,39.317699c-0.205596,0 -0.410915,-0.068624 -0.579623,-0.205504c-4.033904,-3.273246 -7.672346,-7.257108 -10.245188,-11.217512c-2.822684,-4.345195 -4.314746,-8.539619 -4.314746,-12.129859c0,-8.316546 6.766438,-15.082524 15.083444,-15.082524c8.30891,0 15.068725,6.765978 15.068725,15.082524c0,3.400467 -1.745768,7.918417 -4.915527,12.721809c-2.76703,4.192861 -6.331698,8.170283 -9.535492,10.639729c-0.165672,0.127773 -0.363725,0.191337 -0.561593,0.191337zm-0.056113,-36.795618c-7.30255,0 -13.243663,5.940652 -13.243663,13.242743c0,6.227198 5.323682,14.77804 13.310447,21.450189c6.21386,-5.07338 13.16216,-15.266594 13.16216,-21.450189c0,-7.30209 -5.934489,-13.242743 -13.228944,-13.242743z"/>
  </g>
 </g>
</svg>